<?xml version="1.0" encoding="UTF-8"?>
<svg version="1.1" viewBox="0 0 1024 1024" width="1024" height="1024" xmlns="http://www.w3.org/2000/svg">
<path transform="translate(493,16)" d="m0 0h41l37 3 33 5 36 8 27 8 22 8 18 7 15 7 28 14 22 13 17 11 14 10 13 10 10 8 14 12 12 11 27 27 6 7v2h2l8 10 11 14 13 18 10 15 9 15 10 18 9 17 13 30 6 16 10 30 8 31 5 26 4 31 2 27v45l-2 28-4 31-6 30-5 20-8 26-11 29-7 17-8 16-13 25-15 24-11 16-14 19-14 17-12 13-1 2h-2l-2 4-17 17h-2v2l-8 7-11 10-28 22-16 11-15 10-22 13-30 15-25 11-28 10-30 9-31 7-25 4-25 3-14 1h-60l-32-3-25-4-29-6-23-6-38-13-24-10-30-15-20-11-22-14-17-12-13-10-11-9-14-12-15-14-18-18-7-8-12-14-14-18-10-14-10-15-15-25-14-27-10-22-12-31-9-29-8-34-5-29-3-28-1-19v-43l2-29 5-37 8-36 8-27 7-20 11-28 15-31 13-23 14-22 13-18 14-18 12-14 12-13 7-7 4-5 8-7 8-8 8-7 13-11 17-13 17-12 22-14 21-12 17-9 21-9 13-6 25-9 34-10 37-8 37-5zm-1 96-29 3-26 4-26 6-26 8-26 10-16 7-19 10-19 11-12 8-17 12-16 13-8 7-10 9-12 11-7 8-11 12-9 11-12 16-12 18-12 20-12 23-12 28-9 27-7 26-5 26-3 24-1 15v45l2 23 4 27 6 27 8 27 11 29 16 33 11 19 14 21 9 12 8 10 11 13 12 13 15 15 8 7 13 11 12 9 17 12 21 13 20 11 22 10 25 10 30 9 22 5 22 4 27 3h59l27-3 28-5 30-8 21-7 29-12 16-8 17-9 24-15 28-21 14-12 17-16 7-7 7-8 9-10 11-14 11-15 10-15 15-26 13-27 11-28 7-22 6-25 5-29 3-30v-46l-3-31-4-23-6-26-7-23-8-22-9-21-10-19-12-21-10-15-13-18-11-13-9-11-29-29-11-9-12-10-15-11-20-13-21-12-22-11-19-8-19-7-27-8-33-7-33-4-16-1z" fill="#4380EC"/>
<path transform="translate(716,192)" d="m0 0h8l5 15 5 27 1 11v39l-2 17-3 16-5 19-7 19-10 21-11 18-12 16-12 14-16 16-3 2 1 7 4 11 3 14 2 18-1 16-2 15-5 17-7 16-7 12-9 12-12 13-15 12-14 8-8 4h-2l2-9 4-14 1-9v-20l-3-17-5-15-9-17-8-10-4 2-14 17-11 13-9 11-11 13-8 10-14 17-12 14-11 14-12 14-9 11-8 10 5 2 14 7 18 6 19 4 12 1h23l20-3 21-6 18-8 15-9 13-10 10-9 11-12 11-16 10-19 7-20 6-24 3-20 1-10v-32l-2-19-2-13 10-10 9-11 14-19 12-20 9-17 11-28 5-16 4 2 10 13 10 15 10 17 11 23 10 27 7 25 4 23 2 15 1 20v16l-1 20-5 33-6 24-10 28-9 20-12 22-12 18-12 16-10 11-7 8-12 12-8 7-16 13-21 14-21 12-21 10-25 9-17 5-23 5-24 3h-54l-23-3-27-6-23-7-27-11-19-10-15-9-4 2-12 14-9 11-12 14-9 11-6 7-1-2 13-23 24-42-1-4-13-10-10-9-8-7-10-10-9-11-8-9-14-20-9-15-8-14-11-25-7-19-6-22-5-26-2-19-1-25 1-23 3-24 5-25 8-26 10-25 8-16 10-18 11-16 10-13 11-13 15-16 8-7 14-12 18-13 18-11 27-14 25-10 24-7 25-5 23-3 17-1h15l26 2 21 3 22 5 2 1-2 4-16 15-8 8-9 11-12 15-11 17-10 18-9 19-7 19-5 17-3 2-17 3-17 5-20 9-15 9-13 10-18 18-12 17-11 21-6 17-4 16-2 18v18l2 19 4 16 4 12 8 18 10 16 9 11 5 6 3 1 2-5 14-25 9-15 6-11 15-27 15-26 14-25 10-17 4-9-13-1h-17l-19 3-15 5-17 9-13 10-5 4-1 2h-2v-16l4-19 6-17 9-17 10-14 12-13 11-9 10-7 16-9 20-7 15-3 8-1 3-7 6-19 6-13 8-16 9-15 10-14 12-14 21-21 17-13 17-11 23-12 23-9 26-7z" fill="#D34437"/>
<path transform="translate(716,192)" d="m0 0h8l5 15 5 27 1 11v39l-2 17-3 16-5 19-7 19-10 21-11 18-12 16-12 14-16 16-3 2 1 7 4 11 3 14 2 18-1 16-2 15-5 17-7 16-7 12-9 12-12 13-15 12-14 8-8 4h-2l2-9 4-14 1-9v-20l-3-17-5-15-9-17-8-10-4 2-14 17-11 13-9 11-11 13-8 10-14 17-12 14-11 14-12 14-9 11-8 10-11-6-10-8-10-9-1-3 13-23 13-22 6-11 15-27 15-26 14-25 10-17 4-9-13-1h-17l-19 3-15 5-17 9-13 10-5 4-1 2h-2v-16l4-19 6-17 9-17 10-14 12-13 11-9 10-7 16-9 20-7 15-3 8-1 3-7 6-19 6-13 8-16 9-15 10-14 12-14 21-21 17-13 17-11 23-12 23-9 26-7z" fill="#159658"/>
<path transform="translate(744,321)" d="m0 0 4 2 10 13 10 15 10 17 11 23 10 27 7 25 4 23 1 11-1 25-2 17-4 22-7 23-6 15-8 16-10 17-13 18h-2l-2 4-7 8-15 15-11 9-17 12-21 12-20 9-21 7-22 5-15 2-10 1h-29l-25-3-25-6-22-8-16-7-17-10-12-8-14-11-12-11-11-11-9-11-9-13 1-2 10 12 5 5 11 10 15 10 14 7 13 6 21 6 21 3h25l20-3 21-6 18-8 15-9 13-10 10-9 11-12 11-16 10-19 7-20 6-24 3-20 1-10v-32l-2-19-2-13 10-10 9-11 14-19 12-20 9-17 11-28z" fill="#ECAC03"/>
<path transform="translate(653,263)" d="m0 0 10 1 9 5 5 6 3 6v15l-4 8-9 8-5 2h-14l-8-4-7-7-3-7v-14l5-10 9-7z" fill="#F8F8F8"/>
<path transform="translate(338,751)" d="m0 0 5 2 8 6-2 4-12 14-9 11-12 14-9 11-6 7-1-2 13-23 12-21z" fill="#159658"/>
</svg>
